<?xml version="1.0" encoding="UTF-8"?>
<svg width="190px" height="190px" viewBox="0 0 190 190" version="1.1" xmlns="http://www.w3.org/2000/svg" xmlns:xlink="http://www.w3.org/1999/xlink">
    <!-- Generator: Sketch 49.2 (51160) - http://www.bohemiancoding.com/sketch -->
    <title>MGN_token_white_on_blue</title>
    <desc>Created with Sketch.</desc>
    <defs>
        <polygon id="path-1" points="0 0.319671245 44.0254349 0.319671245 44.0254349 80.8634344 0 80.8634344"></polygon>
    </defs>
    <g id="MGN_token_white_on_blue" stroke="none" stroke-width="1" fill="none" fill-rule="evenodd">
        <g id="TUL_token_white_on_blue">
            <circle id="Oval" fill="#0072CF" cx="95" cy="95" r="95"></circle>
            <g id="MGN-icon" transform="translate(42.000000, 39.000000)">
                <path d="M61.4850146,50.9728882 L61.4850146,50.9751266 C74.2109919,64.015588 85.8323574,79.3313033 92.796895,96.2552527 C100.683621,87.5951865 105.510561,76.0946903 105.510561,63.4817483 L105.510561,15.7114895 C94.1689861,22.0795143 71.3235571,36.1406504 61.4850146,50.9728882" id="Fill-14" fill="#FFFFFF"></path>
                <path d="M20.0148476,102.781639 C28.0493029,108.654995 37.9617099,112.119916 48.6564103,112.119916 L48.660887,112.119916 L52.7547771,112.119916 L56.8497864,112.119916 L56.8542631,112.119916 C67.5489635,112.119916 77.4613705,108.654995 85.4958258,102.781639 C78.9520927,85.0586086 66.4342794,68.9315017 52.7547771,55.3448898 C39.076394,68.9315017 26.5585807,85.0586086 20.0148476,102.781639" id="Fill-16" fill="#FFFFFF"></path>
                <path d="M52.7546652,46.6628882 C52.7546652,46.6628882 63.9048641,33.854093 69.5185746,29.0943022 C68.0379248,18.6693195 58.7690352,6.9181313 52.7546652,0.585919595 C46.7414143,6.9181313 37.4725247,18.6693195 35.991875,29.0943022 C41.6055855,33.854093 52.7546652,46.6628882 52.7546652,46.6628882" id="Fill-18" fill="#FFFFFF"></path>
                <g id="Group-22" transform="translate(0.000000, 15.391818)">
                    <mask id="mask-2" fill="white">
                        <use xlink:href="#path-1"></use>
                    </mask>
                    <g id="Clip-21"></g>
                    <path d="M44.0254349,35.58107 C34.1857733,20.7488322 11.3414635,6.6876961 -0.000111916078,0.319671245 L-0.000111916078,48.0899301 C-0.000111916078,60.7028721 4.82682854,72.2033683 12.7135546,80.8634344 C19.6780921,63.9394851 31.2994577,48.6237698 44.0254349,35.5833083 L44.0254349,35.58107 Z" id="Fill-20" fill="#FFFFFF" mask="url(#mask-2)"></path>
                </g>
            </g>
        </g>
    </g>
</svg>